<mxfile host="app.diagrams.net" modified="2024-04-18T00:30:24.325Z" agent="Mozilla/5.0 (Windows NT 10.0; Win64; x64) AppleWebKit/537.36 (KHTML, like Gecko) Chrome/123.0.0.0 Safari/537.36 Edg/123.0.0.0" etag="kGHUpz1DyX2660kyGwzW" version="24.2.0" type="github">
  <diagram name="第 1 页" id="6Ctc8UL-A5C2mINTibMD">
    <mxGraphModel dx="2853" dy="-24" grid="1" gridSize="10" guides="1" tooltips="1" connect="1" arrows="1" fold="1" page="1" pageScale="1" pageWidth="827" pageHeight="1169" math="0" shadow="0">
      <root>
        <mxCell id="0" />
        <mxCell id="1" parent="0" />
        <mxCell id="MP4eYyKk7LPoyzOWAJAM-69" style="edgeStyle=orthogonalEdgeStyle;rounded=0;orthogonalLoop=1;jettySize=auto;html=1;" parent="1" source="MP4eYyKk7LPoyzOWAJAM-61" edge="1">
          <mxGeometry relative="1" as="geometry">
            <mxPoint x="940" y="2011" as="targetPoint" />
          </mxGeometry>
        </mxCell>
        <mxCell id="MP4eYyKk7LPoyzOWAJAM-61" value="sftp&lt;br&gt;回盘文件" style="whiteSpace=wrap;html=1;" parent="1" vertex="1">
          <mxGeometry x="880" y="1600" width="120" height="60" as="geometry" />
        </mxCell>
        <mxCell id="MP4eYyKk7LPoyzOWAJAM-68" style="edgeStyle=orthogonalEdgeStyle;rounded=0;orthogonalLoop=1;jettySize=auto;html=1;" parent="1" source="MP4eYyKk7LPoyzOWAJAM-62" edge="1">
          <mxGeometry relative="1" as="geometry">
            <mxPoint x="700" y="2011" as="targetPoint" />
            <mxPoint x="770.0000000000002" y="1691" as="sourcePoint" />
          </mxGeometry>
        </mxCell>
        <mxCell id="MP4eYyKk7LPoyzOWAJAM-62" value="pms" style="whiteSpace=wrap;html=1;" parent="1" vertex="1">
          <mxGeometry x="640" y="1611" width="120" height="60" as="geometry" />
        </mxCell>
        <mxCell id="MP4eYyKk7LPoyzOWAJAM-71" value="" style="endArrow=classic;html=1;rounded=0;" parent="1" edge="1">
          <mxGeometry width="50" height="50" relative="1" as="geometry">
            <mxPoint x="700" y="1711" as="sourcePoint" />
            <mxPoint x="940" y="1711" as="targetPoint" />
          </mxGeometry>
        </mxCell>
        <mxCell id="MP4eYyKk7LPoyzOWAJAM-72" value="1、定时拉取day-1回盘数据" style="edgeLabel;html=1;align=center;verticalAlign=middle;resizable=0;points=[];" parent="MP4eYyKk7LPoyzOWAJAM-71" vertex="1" connectable="0">
          <mxGeometry x="-0.133" relative="1" as="geometry">
            <mxPoint x="1" as="offset" />
          </mxGeometry>
        </mxCell>
        <mxCell id="MP4eYyKk7LPoyzOWAJAM-73" value="" style="endArrow=classic;html=1;rounded=0;" parent="1" edge="1">
          <mxGeometry width="50" height="50" relative="1" as="geometry">
            <mxPoint x="940" y="1751" as="sourcePoint" />
            <mxPoint x="700" y="1751" as="targetPoint" />
          </mxGeometry>
        </mxCell>
        <mxCell id="MP4eYyKk7LPoyzOWAJAM-75" value="2、更新分账订单状态" style="edgeLabel;html=1;align=center;verticalAlign=middle;resizable=0;points=[];" parent="MP4eYyKk7LPoyzOWAJAM-73" vertex="1" connectable="0">
          <mxGeometry x="0.0468" y="3" relative="1" as="geometry">
            <mxPoint y="-3" as="offset" />
          </mxGeometry>
        </mxCell>
        <mxCell id="MP4eYyKk7LPoyzOWAJAM-77" style="edgeStyle=orthogonalEdgeStyle;rounded=0;orthogonalLoop=1;jettySize=auto;html=1;" parent="1" source="MP4eYyKk7LPoyzOWAJAM-76" edge="1">
          <mxGeometry relative="1" as="geometry">
            <mxPoint x="480.0000000000002" y="2011" as="targetPoint" />
          </mxGeometry>
        </mxCell>
        <mxCell id="MP4eYyKk7LPoyzOWAJAM-76" value="oms" style="whiteSpace=wrap;html=1;" parent="1" vertex="1">
          <mxGeometry x="420" y="1611" width="120" height="60" as="geometry" />
        </mxCell>
        <mxCell id="MP4eYyKk7LPoyzOWAJAM-78" value="" style="endArrow=classic;html=1;rounded=0;" parent="1" edge="1">
          <mxGeometry width="50" height="50" relative="1" as="geometry">
            <mxPoint x="700" y="1791" as="sourcePoint" />
            <mxPoint x="480" y="1791" as="targetPoint" />
          </mxGeometry>
        </mxCell>
        <mxCell id="MP4eYyKk7LPoyzOWAJAM-79" value="3、更新oms分账订单状态" style="edgeLabel;html=1;align=center;verticalAlign=middle;resizable=0;points=[];" parent="MP4eYyKk7LPoyzOWAJAM-78" vertex="1" connectable="0">
          <mxGeometry x="0.1232" y="1" relative="1" as="geometry">
            <mxPoint as="offset" />
          </mxGeometry>
        </mxCell>
        <mxCell id="MP4eYyKk7LPoyzOWAJAM-99" style="edgeStyle=orthogonalEdgeStyle;rounded=0;orthogonalLoop=1;jettySize=auto;html=1;" parent="1" source="MP4eYyKk7LPoyzOWAJAM-140" target="MP4eYyKk7LPoyzOWAJAM-100" edge="1">
          <mxGeometry relative="1" as="geometry">
            <mxPoint x="460.0000000000002" y="2712" as="targetPoint" />
            <mxPoint x="460" y="2642" as="sourcePoint" />
          </mxGeometry>
        </mxCell>
        <mxCell id="MP4eYyKk7LPoyzOWAJAM-101" style="edgeStyle=orthogonalEdgeStyle;rounded=0;orthogonalLoop=1;jettySize=auto;html=1;" parent="1" source="MP4eYyKk7LPoyzOWAJAM-100" target="MP4eYyKk7LPoyzOWAJAM-102" edge="1">
          <mxGeometry relative="1" as="geometry">
            <mxPoint x="460.0000000000002" y="2912" as="targetPoint" />
          </mxGeometry>
        </mxCell>
        <mxCell id="MP4eYyKk7LPoyzOWAJAM-100" value="创建订单" style="rounded=1;whiteSpace=wrap;html=1;absoluteArcSize=1;arcSize=14;strokeWidth=2;" parent="1" vertex="1">
          <mxGeometry x="410.0000000000002" y="2692" width="100" height="100" as="geometry" />
        </mxCell>
        <mxCell id="MP4eYyKk7LPoyzOWAJAM-106" style="edgeStyle=orthogonalEdgeStyle;rounded=0;orthogonalLoop=1;jettySize=auto;html=1;" parent="1" source="MP4eYyKk7LPoyzOWAJAM-102" target="MP4eYyKk7LPoyzOWAJAM-105" edge="1">
          <mxGeometry relative="1" as="geometry" />
        </mxCell>
        <mxCell id="MP4eYyKk7LPoyzOWAJAM-112" style="edgeStyle=orthogonalEdgeStyle;rounded=0;orthogonalLoop=1;jettySize=auto;html=1;" parent="1" source="MP4eYyKk7LPoyzOWAJAM-102" target="MP4eYyKk7LPoyzOWAJAM-138" edge="1">
          <mxGeometry relative="1" as="geometry">
            <mxPoint x="810" y="2902" as="targetPoint" />
          </mxGeometry>
        </mxCell>
        <mxCell id="MP4eYyKk7LPoyzOWAJAM-113" value="查询分账比例" style="edgeLabel;html=1;align=center;verticalAlign=middle;resizable=0;points=[];" parent="MP4eYyKk7LPoyzOWAJAM-112" vertex="1" connectable="0">
          <mxGeometry x="-0.17" y="-2" relative="1" as="geometry">
            <mxPoint as="offset" />
          </mxGeometry>
        </mxCell>
        <mxCell id="MP4eYyKk7LPoyzOWAJAM-129" style="edgeStyle=orthogonalEdgeStyle;rounded=0;orthogonalLoop=1;jettySize=auto;html=1;" parent="1" source="MP4eYyKk7LPoyzOWAJAM-102" target="MP4eYyKk7LPoyzOWAJAM-137" edge="1">
          <mxGeometry relative="1" as="geometry">
            <mxPoint x="122.5" y="2990.0000000000005" as="targetPoint" />
          </mxGeometry>
        </mxCell>
        <mxCell id="MP4eYyKk7LPoyzOWAJAM-131" value="保存快照数据" style="edgeLabel;html=1;align=center;verticalAlign=middle;resizable=0;points=[];" parent="MP4eYyKk7LPoyzOWAJAM-129" vertex="1" connectable="0">
          <mxGeometry x="-0.3426" y="1" relative="1" as="geometry">
            <mxPoint as="offset" />
          </mxGeometry>
        </mxCell>
        <mxCell id="MP4eYyKk7LPoyzOWAJAM-102" value="快照数据&lt;br&gt;1.创建订单分账比例快照&lt;div&gt;oms_shared_ratio_snap&lt;br&gt;2.创建订单主商户快照&lt;br&gt;oms_main_mer_snap&lt;br&gt;&lt;/div&gt;" style="rounded=1;whiteSpace=wrap;html=1;absoluteArcSize=1;arcSize=14;strokeWidth=2;" parent="1" vertex="1">
          <mxGeometry x="315" y="2852" width="290" height="100" as="geometry" />
        </mxCell>
        <mxCell id="MP4eYyKk7LPoyzOWAJAM-111" style="edgeStyle=orthogonalEdgeStyle;rounded=0;orthogonalLoop=1;jettySize=auto;html=1;" parent="1" source="MP4eYyKk7LPoyzOWAJAM-105" target="MP4eYyKk7LPoyzOWAJAM-110" edge="1">
          <mxGeometry relative="1" as="geometry" />
        </mxCell>
        <mxCell id="MP4eYyKk7LPoyzOWAJAM-105" value="订单结束" style="rounded=1;whiteSpace=wrap;html=1;absoluteArcSize=1;arcSize=14;strokeWidth=2;" parent="1" vertex="1">
          <mxGeometry x="410" y="3012" width="100" height="100" as="geometry" />
        </mxCell>
        <mxCell id="MP4eYyKk7LPoyzOWAJAM-134" style="edgeStyle=orthogonalEdgeStyle;rounded=0;orthogonalLoop=1;jettySize=auto;html=1;" parent="1" source="MP4eYyKk7LPoyzOWAJAM-110" target="MP4eYyKk7LPoyzOWAJAM-137" edge="1">
          <mxGeometry relative="1" as="geometry">
            <mxPoint x="122.5" y="3060.0000000000005" as="targetPoint" />
          </mxGeometry>
        </mxCell>
        <mxCell id="MP4eYyKk7LPoyzOWAJAM-135" value="获取快照数据" style="edgeLabel;html=1;align=center;verticalAlign=middle;resizable=0;points=[];" parent="MP4eYyKk7LPoyzOWAJAM-134" vertex="1" connectable="0">
          <mxGeometry x="-0.4283" y="-3" relative="1" as="geometry">
            <mxPoint as="offset" />
          </mxGeometry>
        </mxCell>
        <mxCell id="MP4eYyKk7LPoyzOWAJAM-148" style="edgeStyle=orthogonalEdgeStyle;rounded=0;orthogonalLoop=1;jettySize=auto;html=1;" parent="1" source="MP4eYyKk7LPoyzOWAJAM-110" target="MP4eYyKk7LPoyzOWAJAM-150" edge="1">
          <mxGeometry relative="1" as="geometry">
            <mxPoint x="460" y="3340" as="targetPoint" />
          </mxGeometry>
        </mxCell>
        <mxCell id="MP4eYyKk7LPoyzOWAJAM-154" value="保存分账订单" style="edgeLabel;html=1;align=center;verticalAlign=middle;resizable=0;points=[];" parent="MP4eYyKk7LPoyzOWAJAM-148" vertex="1" connectable="0">
          <mxGeometry x="-0.2051" y="2" relative="1" as="geometry">
            <mxPoint as="offset" />
          </mxGeometry>
        </mxCell>
        <mxCell id="MP4eYyKk7LPoyzOWAJAM-110" value="开始分账&lt;br&gt;1.获取订单分账比例快照 &lt;br&gt;2.按照比例进行分账&lt;br&gt;3.创建分账订单&lt;div&gt;4.获取订单主商户快照&lt;br&gt;4.创建收款订单&lt;/div&gt;" style="rounded=1;whiteSpace=wrap;html=1;absoluteArcSize=1;arcSize=14;strokeWidth=2;" parent="1" vertex="1">
          <mxGeometry x="290" y="3162" width="340" height="100" as="geometry" />
        </mxCell>
        <mxCell id="MP4eYyKk7LPoyzOWAJAM-117" style="edgeStyle=orthogonalEdgeStyle;rounded=0;orthogonalLoop=1;jettySize=auto;html=1;" parent="1" source="MP4eYyKk7LPoyzOWAJAM-116" target="MP4eYyKk7LPoyzOWAJAM-118" edge="1">
          <mxGeometry relative="1" as="geometry">
            <mxPoint x="1050" y="2590.0000000000005" as="targetPoint" />
          </mxGeometry>
        </mxCell>
        <mxCell id="MP4eYyKk7LPoyzOWAJAM-116" value="admin创建第三方账户" style="rounded=1;whiteSpace=wrap;html=1;absoluteArcSize=1;arcSize=14;strokeWidth=2;" parent="1" vertex="1">
          <mxGeometry x="1000" y="2430" width="100" height="100" as="geometry" />
        </mxCell>
        <mxCell id="MP4eYyKk7LPoyzOWAJAM-119" style="edgeStyle=orthogonalEdgeStyle;rounded=0;orthogonalLoop=1;jettySize=auto;html=1;" parent="1" source="MP4eYyKk7LPoyzOWAJAM-118" target="MP4eYyKk7LPoyzOWAJAM-120" edge="1">
          <mxGeometry relative="1" as="geometry">
            <mxPoint x="1050" y="2730.0000000000005" as="targetPoint" />
          </mxGeometry>
        </mxCell>
        <mxCell id="MP4eYyKk7LPoyzOWAJAM-118" value="使用第三方账户创建A、B...账户&lt;div&gt;&lt;br&gt;&lt;/div&gt;" style="rounded=1;whiteSpace=wrap;html=1;absoluteArcSize=1;arcSize=14;strokeWidth=2;" parent="1" vertex="1">
          <mxGeometry x="1000" y="2570.0000000000005" width="100" height="100" as="geometry" />
        </mxCell>
        <mxCell id="MP4eYyKk7LPoyzOWAJAM-121" style="edgeStyle=orthogonalEdgeStyle;rounded=0;orthogonalLoop=1;jettySize=auto;html=1;" parent="1" source="MP4eYyKk7LPoyzOWAJAM-120" target="MP4eYyKk7LPoyzOWAJAM-138" edge="1">
          <mxGeometry relative="1" as="geometry">
            <mxPoint x="870" y="2872" as="targetPoint" />
          </mxGeometry>
        </mxCell>
        <mxCell id="MP4eYyKk7LPoyzOWAJAM-122" value="配置场站比例" style="edgeLabel;html=1;align=center;verticalAlign=middle;resizable=0;points=[];" parent="MP4eYyKk7LPoyzOWAJAM-121" vertex="1" connectable="0">
          <mxGeometry x="-0.3153" relative="1" as="geometry">
            <mxPoint as="offset" />
          </mxGeometry>
        </mxCell>
        <mxCell id="MP4eYyKk7LPoyzOWAJAM-123" style="edgeStyle=orthogonalEdgeStyle;rounded=0;orthogonalLoop=1;jettySize=auto;html=1;" parent="1" source="MP4eYyKk7LPoyzOWAJAM-120" target="MP4eYyKk7LPoyzOWAJAM-139" edge="1">
          <mxGeometry relative="1" as="geometry">
            <mxPoint x="1241" y="2872" as="targetPoint" />
          </mxGeometry>
        </mxCell>
        <mxCell id="MP4eYyKk7LPoyzOWAJAM-128" value="保存商户信息" style="edgeLabel;html=1;align=center;verticalAlign=middle;resizable=0;points=[];" parent="MP4eYyKk7LPoyzOWAJAM-123" vertex="1" connectable="0">
          <mxGeometry x="-0.4566" y="-2" relative="1" as="geometry">
            <mxPoint as="offset" />
          </mxGeometry>
        </mxCell>
        <mxCell id="MP4eYyKk7LPoyzOWAJAM-120" value="创建商户与A、B..账户绑定&lt;br&gt;并配置场站比例" style="rounded=1;whiteSpace=wrap;html=1;absoluteArcSize=1;arcSize=14;strokeWidth=2;" parent="1" vertex="1">
          <mxGeometry x="1000" y="2712.0000000000005" width="100" height="100" as="geometry" />
        </mxCell>
        <mxCell id="MP4eYyKk7LPoyzOWAJAM-137" value="oms_shared_ratio_snap&lt;div&gt;oms_main_mer_snap&lt;/div&gt;" style="shape=parallelogram;html=1;strokeWidth=2;perimeter=parallelogramPerimeter;whiteSpace=wrap;rounded=1;arcSize=12;size=0.23;" parent="1" vertex="1">
          <mxGeometry x="-10" y="3000" width="250" height="60" as="geometry" />
        </mxCell>
        <mxCell id="MP4eYyKk7LPoyzOWAJAM-138" value="oms_mer_ratio" style="shape=parallelogram;html=1;strokeWidth=2;perimeter=parallelogramPerimeter;whiteSpace=wrap;rounded=1;arcSize=12;size=0.23;" parent="1" vertex="1">
          <mxGeometry x="785" y="2882" width="170" height="50" as="geometry" />
        </mxCell>
        <mxCell id="MP4eYyKk7LPoyzOWAJAM-139" value="oms_mer_shared_model" style="shape=parallelogram;html=1;strokeWidth=2;perimeter=parallelogramPerimeter;whiteSpace=wrap;rounded=1;arcSize=12;size=0.23;" parent="1" vertex="1">
          <mxGeometry x="1110" y="2872" width="240" height="50" as="geometry" />
        </mxCell>
        <mxCell id="MP4eYyKk7LPoyzOWAJAM-140" value="开启充电" style="strokeWidth=2;html=1;shape=mxgraph.flowchart.start_1;whiteSpace=wrap;" parent="1" vertex="1">
          <mxGeometry x="410" y="2570" width="100" height="60" as="geometry" />
        </mxCell>
        <mxCell id="MP4eYyKk7LPoyzOWAJAM-146" value="用户侧" style="rounded=1;whiteSpace=wrap;html=1;absoluteArcSize=1;arcSize=14;strokeWidth=2;fontSize=17;" parent="1" vertex="1">
          <mxGeometry x="300" y="2480" width="310" height="40" as="geometry" />
        </mxCell>
        <mxCell id="MP4eYyKk7LPoyzOWAJAM-147" value="后台侧" style="rounded=1;whiteSpace=wrap;html=1;absoluteArcSize=1;arcSize=14;strokeWidth=2;fontSize=17;" parent="1" vertex="1">
          <mxGeometry x="895" y="2350" width="310" height="40" as="geometry" />
        </mxCell>
        <mxCell id="MP4eYyKk7LPoyzOWAJAM-150" value="oms_shared_order" style="shape=parallelogram;html=1;strokeWidth=2;perimeter=parallelogramPerimeter;whiteSpace=wrap;rounded=1;arcSize=12;size=0.23;" parent="1" vertex="1">
          <mxGeometry x="355" y="3340" width="210" height="60" as="geometry" />
        </mxCell>
        <mxCell id="gdO3KvjApSFDbHTZyLg6-2" value="核销回盘流程" style="whiteSpace=wrap;html=1;" vertex="1" parent="1">
          <mxGeometry x="640" y="1480" width="120" height="60" as="geometry" />
        </mxCell>
        <mxCell id="gdO3KvjApSFDbHTZyLg6-3" value="分账流程" style="whiteSpace=wrap;html=1;" vertex="1" parent="1">
          <mxGeometry x="650" y="2200" width="120" height="60" as="geometry" />
        </mxCell>
      </root>
    </mxGraphModel>
  </diagram>
</mxfile>
